<svg width="512" height="512" viewBox="0 0 200 180" fill="none" xmlns="http://www.w3.org/2000/svg">
  <defs>
    <linearGradient id="neonGrad" x1="0%" y1="0%" x2="100%" y2="100%">
      <stop offset="0%" style="stop-color:#d946ef;stop-opacity:1" /> 
      <stop offset="50%" style="stop-color:#8b5cf6;stop-opacity:1" />
      <stop offset="100%" style="stop-color:#06b6d4;stop-opacity:1" />
    </linearGradient>

    <filter id="glow" x="-20%" y="-20%" width="140%" height="140%">
      <feGaussianBlur stdDeviation="1.5" result="coloredBlur"/>
      <feMerge>
        <feMergeNode in="coloredBlur"/>
        <feMergeNode in="SourceGraphic"/>
      </feMerge>
    </filter>
  </defs>

  <g transform="translate(100, 90)" filter="url(#glow)">
    
    <path d="M-95 0 L-48 -80 H48 L95 0 L48 80 H-48 Z" 
          fill="none" 
          stroke="url(#neonGrad)" 
          stroke-width="4" 
          stroke-linejoin="round" />

    <g transform="scale(0.85) translate(-72, -40)">
      
      <path d="M0 0 L0 80 L18 80 L18 32 L56 80 L74 80 L74 0 L56 0 L56 48 L18 0 L0 0 Z" 
            fill="url(#neonGrad)" />

      <path d="M145 0 L95 0 L95 80 L145 80 L145 45 L116 45 L116 55 L128 55 L128 64 L113 64 L113 16 L145 16 L145 0 Z" 
            fill="url(#neonGrad)" />
            
    </g>
  </g>
</svg>